<svg xmlns="http://www.w3.org/2000/svg" width="1200" height="630" viewBox="0 0 1200 630" role="img" aria-labelledby="title desc">
  <title id="title">Pilot Protocol harness integrations</title>
  <desc id="desc">A central Pilot node connected to twelve agent harnesses.</desc>
  <rect width="1200" height="630" fill="#07111f"/>
  <g fill="none" stroke="#5eead4" stroke-width="2" opacity=".45">
    <path d="M600 315 210 135M600 315 390 90M600 315 610 70M600 315 830 90M600 315 1010 145M600 315 1025 445M600 315 825 545M600 315 600 565M600 315 370 540M600 315 175 445M600 315 135 290M600 315 305 260"/>
  </g>
  <g fill="#0f2035" stroke="#5eead4" stroke-width="2">
    <circle cx="600" cy="315" r="82"/>
    <circle cx="210" cy="135" r="30"/><circle cx="390" cy="90" r="30"/><circle cx="610" cy="70" r="30"/>
    <circle cx="830" cy="90" r="30"/><circle cx="1010" cy="145" r="30"/><circle cx="1025" cy="445" r="30"/>
    <circle cx="825" cy="545" r="30"/><circle cx="600" cy="565" r="30"/><circle cx="370" cy="540" r="30"/>
    <circle cx="175" cy="445" r="30"/><circle cx="135" cy="290" r="30"/><circle cx="305" cy="260" r="30"/>
  </g>
  <text x="600" y="307" fill="#f8fafc" font-family="ui-sans-serif,system-ui" font-size="34" font-weight="700" text-anchor="middle">PILOT</text>
  <text x="600" y="343" fill="#99f6e4" font-family="ui-monospace,monospace" font-size="17" text-anchor="middle">MCP + trusted peers</text>
  <text x="72" y="586" fill="#f8fafc" font-family="ui-sans-serif,system-ui" font-size="38" font-weight="650">One network. Your agent harness.</text>
</svg>
